<?xml version="1.0" encoding="UTF-8"?>
<!DOCTYPE svg PUBLIC "-//W3C//DTD SVG 1.1//EN" "http://www.w3.org/Graphics/SVG/1.1/DTD/svg11.dtd">
<!-- Creator: CorelDRAW X8 -->
<svg xmlns="http://www.w3.org/2000/svg" xml:space="preserve" width="150px" height="auto" version="1.1" style="shape-rendering:geometricPrecision; text-rendering:geometricPrecision; image-rendering:optimizeQuality; fill-rule:evenodd; clip-rule:evenodd"
viewBox="0 0 1531 468"
 xmlns:xlink="http://www.w3.org/1999/xlink">
 <defs>
  <style type="text/css">
   <![CDATA[
    .fil1 {fill:#01579B}
    .fil0 {fill:#04ABC4}
    .fil2 {fill:#4DD0E1;fill-rule:nonzero}
   ]]>
  </style>
 </defs>
 <g id="Layer_x0020_1">
  <metadata id="CorelCorpID_0Corel-Layer"/>
  <g id="_1343029552912">
   <path class="fil0" d="M232 460l13 0 1 -84c12,-8 22,-18 34,-28 41,-34 33,-19 33,-68 0,-12 -6,-20 -14,-26 -2,49 7,36 -15,55 -11,9 -26,22 -37,31 -21,17 -16,10 -16,52 0,19 -2,50 1,68z"/>
   <path class="fil0" d="M136 286c0,47 -7,27 37,66 37,31 30,13 31,81l0 27 14 0 0 -96c0,-12 1,-10 -7,-17 -10,-8 -18,-15 -28,-24 -9,-7 -19,-15 -28,-22 -7,-6 -5,-9 -5,-21 0,-8 0,-17 0,-25 -14,6 -14,21 -14,31z"/>
   <path class="fil0" d="M109 318l0 33c21,20 45,35 67,56l0 52 14 1c1,-17 0,-34 0,-51 0,-28 4,-23 -13,-37 -20,-16 -36,-29 -54,-45l-1 -37c-4,2 -5,4 -10,11 -5,6 -3,9 -3,17z"/>
   <path class="fil0" d="M327 327l-68 56 0 69c0,11 2,9 14,8 1,-15 -4,-49 5,-57l51 -43c7,-6 11,-6 12,-19 0,-17 4,-41 -14,-50l0 36z"/>
   <g>
    <path class="fil1" d="M226 289l186 -194c6,-5 10,-7 13,-14l-119 0c8,19 18,14 34,14l51 1 -82 86c-7,8 -78,83 -85,85l-166 -171 75 -1 10 -14 -119 0c3,6 20,22 24,27 23,22 169,178 178,181z"/>
    <path class="fil1" d="M118 138c5,9 6,8 11,9 3,-7 60,-79 70,-92 7,-8 18,-24 25,-31 6,3 9,10 13,15l85 108c5,-2 6,-3 9,-9 -5,-10 -19,-26 -26,-35 -11,-14 -75,-95 -78,-103 -6,2 -5,2 -9,7l-74 96c-6,8 -23,27 -26,35z"/>
    <path class="fil1" d="M137 159l9 9c11,-9 66,-86 78,-98 7,3 69,92 79,98l9 -9c-4,-8 -86,-112 -88,-113l-87 113z"/>
    <path class="fil1" d="M348 182l36 46c6,8 32,41 35,48l-83 0c2,5 6,9 10,14l102 0c-1,-7 -15,-22 -21,-29 -9,-12 -64,-85 -69,-89l-10 10z"/>
    <path class="fil1" d="M0 290l97 0c9,0 14,-7 16,-14l-83 0c4,-8 11,-16 17,-24 6,-8 11,-14 18,-23 6,-8 11,-15 18,-23 6,-8 14,-17 17,-23 -2,-5 -5,-9 -10,-10l-84 108c-3,4 -2,4 -6,7l0 2z"/>
    <path class="fil1" d="M329 201c5,14 28,34 33,47l-47 0c5,18 18,15 37,14l39 1c0,-5 -44,-62 -52,-70l-10 8z"/>
    <path class="fil1" d="M57 262l61 0c9,0 14,-5 16,-14l-46 0c3,-12 26,-33 32,-46l-9 -10c-6,5 -51,64 -54,70z"/>
   </g>
  </g>
  <path class="fil2" d="M596 103l-26 0 0 88 -22 0 0 -88 -26 0 0 -18 74 0 0 18zm87 88l-21 0 0 -45 -32 0 0 45 -21 0 0 -106 21 0 0 43 32 0 0 -43 21 0 0 106zm72 -46l-33 0 0 28 39 0 0 18 -61 0 0 -106 61 0 0 18 -39 0 0 25 33 0 0 17zm-193 78l22 0 0 73c0,11 -3,19 -9,25 -6,6 -13,10 -22,10 -10,0 -17,-3 -23,-9 -5,-6 -8,-14 -8,-24l22 0c0,10 3,15 9,15 6,0 9,-6 9,-18l0 -72zm94 60l-34 0 0 28 40 0 0 18 -61 0 0 -106 61 0 0 18 -40 0 0 25 34 0 0 17zm87 6l10 -66 21 0 -18 106 -22 0 -12 -63 -13 63 -21 0 -19 -106 21 0 10 66 13 -66 18 0 12 66zm66 40l-22 0 0 -106 22 0 0 106zm62 -28c0,-4 -1,-8 -3,-10 -2,-2 -6,-4 -12,-7 -11,-4 -18,-8 -23,-14 -5,-5 -7,-12 -7,-19 0,-9 3,-16 10,-22 6,-5 14,-8 24,-8 6,0 12,2 17,4 5,3 9,7 12,12 3,5 4,11 4,17l-21 0c0,-5 -1,-9 -3,-11 -2,-3 -6,-4 -10,-4 -3,0 -6,1 -8,3 -2,2 -3,5 -3,9 0,3 1,6 3,8 2,2 7,5 12,7 11,4 18,9 23,14 5,6 7,13 7,21 0,9 -3,16 -9,22 -6,5 -14,8 -24,8 -7,0 -13,-2 -19,-5 -5,-3 -10,-7 -13,-12 -3,-5 -5,-11 -5,-19l22 0c0,7 1,11 4,14 2,3 6,4 11,4 8,0 11,-4 11,-12zm111 28l-21 0 0 -45 -32 0 0 45 -22 0 0 -106 22 0 0 43 32 0 0 -43 21 0 0 106zm102 -22l-29 0 -6 22 -22 0 33 -106 20 0 33 106 -23 0 -6 -22zm-24 -18l20 0 -10 -38 -10 38zm134 28c-4,4 -9,8 -15,10 -6,2 -13,4 -20,4 -12,0 -22,-4 -29,-12 -6,-7 -10,-18 -10,-33l0 -19c0,-15 3,-26 9,-34 7,-8 16,-12 28,-12 12,0 21,3 27,9 5,5 9,14 10,27l-21 0c-1,-7 -2,-12 -4,-14 -3,-3 -6,-4 -11,-4 -6,0 -10,2 -12,6 -3,5 -4,11 -5,21l0 19c0,10 2,17 5,21 3,4 7,7 14,7 4,0 8,-1 10,-3l2 -1 0 -20 -15 0 0 -16 37 0 0 44zm70 -34l-34 0 0 28 40 0 0 18 -61 0 0 -106 61 0 0 18 -40 0 0 25 34 0 0 17zm93 46l-22 0 -31 -70 0 70 -22 0 0 -106 22 0 31 69 0 -69 22 0 0 106zm89 -35c0,12 -4,21 -10,27 -6,6 -15,10 -27,10 -12,0 -21,-4 -27,-12 -7,-8 -10,-20 -10,-34l0 -18c0,-15 3,-26 10,-34 7,-8 16,-12 28,-12 11,0 20,3 26,10 6,6 9,16 10,28l-21 0c0,-8 -2,-13 -4,-16 -2,-3 -6,-4 -11,-4 -6,0 -10,2 -13,6 -2,4 -3,11 -3,20l0 20c0,11 1,18 3,22 2,4 7,6 12,6 6,0 10,-2 12,-4 2,-3 3,-8 4,-15l21 0zm45 -24l16 -47 24 0 -29 67 0 39 -21 0 0 -39 -29 -67 23 0 16 47zm-909 154l-33 0 0 43 -22 0 0 -106 59 0 0 18 -37 0 0 27 33 0 0 18zm91 -1c0,15 -3,26 -10,34 -6,8 -16,11 -28,11 -12,0 -21,-3 -28,-11 -7,-8 -10,-19 -10,-33l0 -18c0,-15 3,-26 10,-35 7,-8 16,-12 28,-12 12,0 21,4 28,12 7,8 10,20 10,34l0 18zm-21 -18c0,-9 -2,-16 -4,-21 -3,-5 -7,-7 -13,-7 -6,0 -10,2 -13,7 -2,4 -4,11 -4,20l0 19c0,10 2,17 4,21 3,4 7,7 13,7 6,0 10,-3 13,-7 2,-4 4,-11 4,-20l0 -19zm69 23l-11 0 0 39 -21 0 0 -106 34 0c11,0 19,2 25,8 6,6 9,14 9,24 0,14 -5,24 -16,30l19 43 0 1 -23 0 -16 -39zm-11 -18l13 0c4,0 7,-1 9,-4 2,-3 3,-7 3,-11 0,-11 -4,-16 -12,-16l-13 0 0 31zm119 57l-22 0 0 -106 22 0 0 106zm62 -28c0,-4 -1,-8 -3,-10 -2,-2 -6,-4 -12,-7 -11,-4 -18,-8 -23,-14 -5,-5 -7,-12 -7,-19 0,-9 3,-16 10,-22 6,-5 14,-8 24,-8 6,0 12,1 17,4 5,3 9,7 12,12 3,5 4,11 4,17l-21 0c0,-5 -1,-9 -3,-11 -3,-3 -6,-4 -10,-4 -3,0 -6,1 -8,3 -2,2 -3,5 -3,9 0,3 1,6 3,8 2,2 7,5 12,7 11,4 18,9 23,14 5,6 7,13 7,21 0,9 -3,16 -9,22 -6,5 -14,7 -24,7 -7,0 -13,-1 -19,-4 -5,-3 -10,-7 -13,-12 -3,-5 -5,-11 -5,-19l22 0c0,7 1,11 4,14 2,3 6,4 11,4 8,0 11,-4 11,-12zm69 -11l-11 0 0 39 -22 0 0 -106 35 0c10,0 19,2 25,8 6,6 8,14 8,24 0,14 -5,24 -15,30l19 43 0 1 -23 0 -16 -39zm-11 -18l12 0c4,0 8,-1 10,-4 2,-3 3,-7 3,-11 0,-11 -4,-16 -13,-16l-12 0 0 31zm112 35l-29 0 -6 22 -23 0 33 -106 20 0 34 106 -23 0 -6 -22zm-25 -18l20 0 -10 -38 -10 38zm118 -6l-33 0 0 28 40 0 0 18 -61 0 0 -106 60 0 0 18 -39 0 0 25 33 0 0 17zm40 28l38 0 0 18 -59 0 0 -106 21 0 0 88z"/>
 </g>
</svg>
