<?xml version="1.0" encoding="UTF-8"?>
<!DOCTYPE svg PUBLIC "-//W3C//DTD SVG 1.1//EN" "http://www.w3.org/Graphics/SVG/1.1/DTD/svg11.dtd">
<!-- Creator: CorelDRAW X8 -->
<svg xmlns="http://www.w3.org/2000/svg" xml:space="preserve" width="260px" height="auto" version="1.1" style="shape-rendering:geometricPrecision; text-rendering:geometricPrecision; image-rendering:optimizeQuality; fill-rule:evenodd; clip-rule:evenodd"
viewBox="0 0 3811 827"
 xmlns:xlink="http://www.w3.org/1999/xlink">
 <defs>
  <style type="text/css">
   <![CDATA[
    .fil1 {fill:#00BCD4;fill-rule:nonzero}
    .fil0 {fill:#CFD8DC;fill-rule:nonzero}
   ]]>
  </style>
 </defs>
 <g id="Layer_x0020_1">
  <metadata id="CorelCorpID_0Corel-Layer"/>
  <g id="_1343029541264">
   <path class="fil0" d="M0 17l0 793 312 0 0 -56 -255 0 0 -680 255 0 0 -57 -312 0zm113 113l0 567 199 0 0 -57 -142 0 0 -198 130 0 0 -57 -130 0 0 -198 142 0 0 -57 -199 0z"/>
   <path class="fil0" d="M772 376l-381 434 76 0 697 -793 -76 0 -278 315 -315 -315 -81 0 358 359zm-158 434l277 -315 316 315 82 0 -360 -359 382 -434 -76 0 -697 793 76 0z"/>
   <path class="fil1" d="M1387 707c81,81 178,120 293,120 87,0 164,-22 231,-69l-41 -41c-56,36 -120,54 -190,54 -99,0 -184,-35 -253,-105 -69,-70 -104,-154 -104,-252 0,-99 35,-183 104,-252 69,-70 154,-105 253,-105 98,0 183,35 253,105 69,69 104,153 104,252 0,69 -18,131 -52,186l41 42c45,-67 67,-143 67,-228 0,-115 -40,-212 -121,-293 -80,-80 -178,-121 -292,-121 -115,0 -212,41 -293,121 -80,81 -121,178 -121,293 0,114 41,213 121,293z"/>
   <path class="fil0" d="M2280 810c112,0 206,-37 282,-112 77,-76 115,-170 115,-284 0,-115 -38,-209 -115,-284 -76,-76 -170,-113 -282,-113l-62 0 0 793 62 0zm0 -623c64,0 117,22 161,63 45,42 66,97 66,164 0,67 -21,121 -66,163 -44,42 -97,63 -161,63l-5 0 0 -453 5 0zm0 -113c96,0 176,31 242,96 66,65 99,145 99,244 0,98 -33,179 -99,243 -66,65 -146,97 -242,97l-5 0 0 -57 5 0c80,0 147,-26 201,-79 56,-54 83,-122 83,-204 0,-83 -27,-150 -83,-203 -54,-53 -121,-81 -201,-81l-5 0 0 -56 5 0z"/>
   <path class="fil0" d="M2802 595c0,65 23,119 68,164 45,46 100,68 164,68 65,0 119,-22 165,-68 45,-45 68,-99 68,-164l0 -578 -57 0 0 578c0,49 -17,90 -52,125 -34,34 -75,51 -124,51 -49,0 -89,-17 -124,-51 -34,-35 -51,-76 -51,-125l0 -578 -57 0 0 578zm113 0c0,33 12,61 35,85 24,23 51,34 84,34 33,0 60,-11 84,-34 24,-24 35,-52 35,-85l0 -578 -56 0 0 578c0,33 -28,62 -63,62 -35,0 -62,-29 -62,-62l0 -578 -57 0 0 578z"/>
   <path class="fil0" d="M3800 199c0,-56 -18,-104 -55,-141 -36,-39 -84,-58 -144,-58 -59,0 -107,17 -144,52 -37,35 -56,76 -56,125 0,64 32,112 95,142l315 150c0,-45 -32,-82 -96,-112l-195 -91c-41,-21 -62,-51 -62,-89 0,-67 56,-120 143,-120 42,0 76,13 102,42 27,27 41,61 41,100l0 22 56 0 0 -22zm-399 137c0,44 32,81 95,111l194 91c42,20 64,50 64,91 0,78 -60,142 -159,142 -98,0 -158,-71 -158,-165l0 -21 -57 0 0 21c0,63 19,116 59,158 40,42 92,63 156,63 65,0 116,-19 156,-57 39,-40 60,-87 60,-141 0,-66 -32,-113 -96,-143l-314 -150z"/>
   <path class="fil0" d="M1507 243c48,-49 106,-73 173,-73 67,0 124,24 172,73 48,47 71,104 71,171 0,67 -23,123 -71,172 -48,48 -105,71 -172,71 -67,0 -125,-23 -173,-71 -47,-49 -71,-105 -71,-172 0,-67 24,-124 71,-171zm365 402l167 165 81 0 -207 -207c45,-54 67,-117 67,-189 0,-83 -29,-154 -88,-212 -59,-59 -130,-89 -212,-89 -83,0 -153,30 -212,89 -59,58 -89,129 -89,212 0,82 30,154 89,213 59,58 129,87 212,87 74,0 137,-23 192,-69z"/>
   <polygon class="fil1" points="1554,505 1581,414 1504,323 1609,323 1636,232 1714,323 1819,323 1791,414 1869,505 1764,505 1736,596 1659,505 "/>
  </g>
 </g>
</svg>
