<?xml version="1.0" encoding="UTF-8"?>
<!DOCTYPE svg PUBLIC "-//W3C//DTD SVG 1.1//EN" "http://www.w3.org/Graphics/SVG/1.1/DTD/svg11.dtd">
<!-- Creator: CorelDRAW X8 -->
<svg xmlns="http://www.w3.org/2000/svg" xml:space="preserve" width="150px" height="auto" version="1.1" style="shape-rendering:geometricPrecision; text-rendering:geometricPrecision; image-rendering:optimizeQuality; fill-rule:evenodd; clip-rule:evenodd"
viewBox="0 0 925 337"
 xmlns:xlink="http://www.w3.org/1999/xlink">
 <defs>
  <style type="text/css">
   <![CDATA[
    .str3 {stroke:#006CB5;stroke-width:1.23134}
    .str5 {stroke:#FEFEFE;stroke-width:0.20511}
    .str4 {stroke:#FEFEFE;stroke-width:0.478476}
    .str2 {stroke:#006CB5;stroke-width:0.478476}
    .str1 {stroke:#FEFEFE;stroke-width:0.752183}
    .str0 {stroke:#FEFEFE;stroke-width:0.957635}
    .fil1 {fill:none}
    .fil0 {fill:#FEFEFE}
    .fil3 {fill:#006CB5}
    .fil2 {fill:#1976D2}
    .fil4 {fill:#4DD0E1;fill-rule:nonzero}
   ]]>
  </style>
 </defs>
 <g id="Layer_x0020_1">
  <metadata id="CorelCorpID_0Corel-Layer"/>
  <path class="fil0" d="M273 0l0 251c0,0 1,60 -73,69 -5,0 -52,-1 -64,17 -12,-18 -58,-17 -63,-17 -74,-9 -73,-69 -73,-69l0 -251 273 0z"/>
  <path class="fil1" d="M273 0l0 251c0,0 1,60 -73,69 -5,0 -52,-1 -64,17 -12,-18 -58,-17 -63,-17 -74,-9 -73,-69 -73,-69l0 -251 273 0z"/>
  <path class="fil2" d="M267 8l0 240c0,0 2,57 -70,65 -4,0 -49,-1 -60,17 -11,-18 -56,-17 -60,-17 -71,-8 -70,-65 -70,-65l0 -240 260 0z"/>
  <polygon class="fil0" points="93,217 181,217 181,192 93,192 "/>
  <polygon class="fil1 str0" points="181,217 181,192 93,192 93,217 "/>
  <polygon class="fil3" points="151,215 179,215 179,194 151,194 "/>
  <polygon class="fil1 str1" points="154,213 154,198 176,198 176,213 "/>
  <path class="fil1 str2" d="M113 210c0,0 -1,-1 -2,-1 0,-2 2,-2 3,-2"/>
  <path class="fil1 str2" d="M103 212c1,-1 3,-1 4,-2 1,-2 1,-4 0,-5 -1,-1 -2,-1 -3,0 -1,1 -2,3 -1,5"/>
  <path class="fil1 str2" d="M106 207c-1,1 -1,1 -1,2"/>
  <path class="fil1 str2" d="M108 206c1,0 3,-1 3,-3 1,1 3,1 4,3"/>
  <path class="fil1 str2" d="M107 211c2,-1 4,0 6,0"/>
  <polyline class="fil1 str3" points="97,215 97,194 114,194 "/>
  <polyline class="fil1 str3" points="100,213 100,198 112,198 "/>
  <polygon class="fil0" points="78,246 197,246 197,217 78,217 "/>
  <polygon class="fil1 str0" points="197,246 197,217 78,217 78,246 "/>
  <polygon class="fil3" points="153,243 195,243 195,219 153,219 "/>
  <path class="fil1 str4" d="M161 231c2,0 3,0 5,0 1,0 2,-1 2,-2 0,-1 0,-3 2,-3 1,-1 2,1 4,1"/>
  <path class="fil1 str4" d="M171 229c0,1 0,1 0,2 0,0 1,1 1,2 1,1 0,2 -2,3 -2,0 -4,-1 -6,-1 0,0 0,0 0,0"/>
  <path class="fil1 str4" d="M178 227c2,0 3,-1 4,-1 2,1 1,3 1,5 1,-1 2,-1 3,-1 0,-1 1,-1 1,-2"/>
  <path class="fil1 str4" d="M178 229c1,0 1,1 1,1 0,2 -1,4 1,5 1,1 2,0 3,0 2,0 4,-1 5,-2"/>
  <path class="fil1 str2" d="M141 233c1,0 2,1 2,0 1,-1 0,-3 2,-3 2,-1 4,1 3,3 0,1 -1,2 -2,2 -1,1 -4,1 -6,0"/>
  <path class="fil1 str2" d="M126 233c0,0 -1,-1 -1,-2 1,0 1,0 1,1 1,1 3,1 4,2"/>
  <path class="fil1 str2" d="M123 239c1,-1 1,-2 2,-3 1,0 2,0 2,0 0,1 1,1 2,1"/>
  <path class="fil1 str2" d="M134 237c3,0 6,-1 7,-3 0,-1 0,-2 0,-2 0,-1 -1,-1 -1,-2 -1,0 -2,-1 -3,0 -1,1 -1,1 -1,2 0,-1 -3,-2 -4,0 -1,0 -1,-1 -2,-1 -1,0 0,-1 -1,-1 0,0 0,-1 -1,-1 -1,0 -1,-1 -1,-1 -2,0 -3,0 -4,1 -2,1 -1,4 0,6"/>
  <path class="fil1 str2" d="M129 230c2,-1 3,0 4,1"/>
  <polyline class="fil1 str3" points="117,215 117,194 148,194 "/>
  <polyline class="fil1 str3" points="120,213 120,198 146,198 "/>
  <polyline class="fil1 str3" points="115,243 115,219 146,219 "/>
  <polyline class="fil1 str3" points="118,241 118,222 144,222 "/>
  <polygon class="fil1 str1" points="157,240 157,222 191,222 191,240 "/>
  <path class="fil1 str2" d="M123 210c0,-1 0,-2 0,-2 0,0 1,-1 1,-1 1,0 0,-2 1,-2 1,-1 2,-1 2,-1 1,0 2,-1 3,-2 0,0 1,0 2,1 2,1 5,3 8,1 1,0 2,-1 3,-1 0,-1 1,-1 2,-1 1,1 1,2 1,3 0,1 2,1 3,1"/>
  <path class="fil1 str2" d="M148 208c-1,0 -2,-1 -3,-1 -1,0 -1,2 -2,3"/>
  <path class="fil1 str2" d="M125 210c1,-1 1,-2 2,-2 1,0 3,0 3,1"/>
  <path class="fil1 str2" d="M133 209c-1,0 -3,-2 -3,-3 0,-1 2,-1 2,0 3,3 7,3 10,1 -1,0 -2,1 -1,3"/>
  <path class="fil1 str4" d="M161 208c1,0 2,0 2,-1 1,-1 -1,-2 -2,-1"/>
  <path class="fil1 str4" d="M172 211c-2,-1 -4,-1 -5,-3 -1,-1 -1,-4 1,-5 1,0 2,0 3,0 1,2 1,4 0,5"/>
  <path class="fil1 str4" d="M169 206c0,0 1,1 0,1"/>
  <path class="fil1 str4" d="M167 205c-2,0 -4,-1 -3,-3 -2,1 -3,1 -4,3"/>
  <path class="fil1 str4" d="M168 209c-3,0 -5,0 -7,1"/>
  <path class="fil1 str2" d="M88 231c0,2 1,3 3,3 1,0 2,-1 2,-2 1,-1 1,-3 2,-3 1,-1 2,1 4,1"/>
  <path class="fil1 str2" d="M97 232c-1,1 -1,1 -1,2 1,1 1,1 1,2 1,1 0,2 -2,3 -2,0 -4,0 -6,-1 0,0 0,0 0,0"/>
  <path class="fil1 str2" d="M101 230c2,1 3,-1 4,0 2,1 1,3 0,4 1,0 3,0 3,-1 1,0 2,-1 2,-1"/>
  <path class="fil1 str2" d="M101 233c0,0 1,0 1,0 0,2 -2,4 0,6 1,0 3,0 4,0 1,0 4,-1 4,-3"/>
  <polyline class="fil1 str3" points="81,244 81,221 108,221 "/>
  <polyline class="fil1 str3" points="84,242 84,224 106,224 "/>
  <path class="fil0" d="M146 134c0,3 1,6 1,7l4 -1 0 7c0,0 -3,1 -3,2 0,2 0,3 -1,3 0,0 -1,1 0,2 0,0 1,1 1,3 0,0 2,1 2,4l2 0 0 5 -4 0c0,0 0,0 0,1 0,1 0,4 0,4 0,1 1,2 2,3 0,1 6,3 7,14 0,2 1,3 5,4l-49 0c3,-1 6,-2 6,-4 1,-11 7,-13 7,-14 1,-1 2,-2 2,-3 1,0 0,-3 0,-4 0,-1 0,-1 0,-1l-4 0 0 -5 2 0c0,-3 3,-4 3,-4 0,-2 0,-3 0,-3 1,-1 0,-2 0,-2 -1,0 -1,-1 -1,-3 0,-1 -3,-2 -3,-2l0 -7 4 1c0,-1 1,-9 1,-11 0,-2 1,-6 1,-6 -1,-1 -1,-7 -1,-10 0,-3 1,-5 1,-6 0,0 0,-1 -1,-2 0,-1 1,-7 1,-11 -1,-4 -1,-7 -1,-8 0,-1 1,-3 1,-3 0,-1 1,-1 1,-1 0,0 -2,-2 -2,-3 0,-2 1,-3 1,-3 0,-1 1,-2 0,-2 -1,0 -1,-2 -1,-3 0,-1 1,-2 1,-2 0,0 1,0 0,-1 0,-1 -1,-2 -1,-3 0,0 2,-1 2,-1 -1,-1 -1,-2 -1,-4 0,-1 1,-2 1,-4 0,-1 -5,-5 -5,-6 0,-1 -1,-5 2,-6 2,-1 5,-4 13,-2 7,2 6,5 5,7 -1,1 -4,5 -4,7 -1,1 -1,4 0,5 0,1 0,5 0,7 0,0 0,2 0,3 0,1 1,5 0,6 0,0 1,1 1,2 0,0 -1,1 -1,1l0 2c0,0 0,0 0,2 0,2 0,4 0,4 0,0 0,5 1,9 1,5 2,11 1,18 0,2 1,8 0,9 0,0 0,4 0,6l1 3z"/>
  <path class="fil1 str5" d="M146 134c0,3 1,6 1,7l4 -1 0 7c0,0 -3,1 -3,2 0,2 0,3 -1,3 0,0 -1,1 0,2 0,0 1,1 1,3 0,0 2,1 2,4l2 0 0 5 -4 0c0,0 0,0 0,1 0,1 0,4 0,4 0,1 1,2 2,3 0,1 6,3 7,14 0,2 1,3 5,4l-49 0c3,-1 6,-2 6,-4 1,-11 7,-13 7,-14 1,-1 2,-2 2,-3 1,0 0,-3 0,-4 0,-1 0,-1 0,-1l-4 0 0 -5 2 0c0,-3 3,-4 3,-4 0,-2 0,-3 0,-3 1,-1 0,-2 0,-2 -1,0 -1,-1 -1,-3 0,-1 -3,-2 -3,-2l0 -7 4 1c0,-1 1,-9 1,-11 0,-2 1,-6 1,-6 -1,-1 -1,-7 -1,-10 0,-3 1,-5 1,-6 0,0 0,-1 -1,-2 0,-1 1,-7 1,-11 -1,-4 -1,-7 -1,-8 0,-1 1,-3 1,-3 0,-1 1,-1 1,-1 0,0 -2,-2 -2,-3 0,-2 1,-3 1,-3 0,-1 1,-2 0,-2 -1,0 -1,-2 -1,-3 0,-1 1,-2 1,-2 0,0 1,0 0,-1 0,-1 -1,-2 -1,-3 0,0 2,-1 2,-1 -1,-1 -1,-2 -1,-4 0,-1 1,-2 1,-4 0,-1 -5,-5 -5,-6 0,-1 -1,-5 2,-6 2,-1 5,-4 13,-2 7,2 6,5 5,7 -1,1 -4,5 -4,7 -1,1 -1,4 0,5 0,1 0,5 0,7 0,0 0,2 0,3 0,1 1,5 0,6 0,0 1,1 1,2 0,0 -1,1 -1,1l0 2c0,0 0,0 0,2 0,2 0,4 0,4 0,0 0,5 1,9 1,5 2,11 1,18 0,2 1,8 0,9 0,0 0,4 0,6l1 3z"/>
  <path class="fil3" d="M132 50c1,-1 3,0 5,-1 0,0 1,-1 1,-1 0,0 1,0 1,-1 0,-1 0,-1 0,-2 3,0 6,3 5,6 -1,1 -1,2 -2,2 -1,1 -2,3 -2,4 -1,4 2,7 1,10 0,1 0,2 -1,3 -1,0 -1,0 -2,0 -1,-1 -3,0 -4,-2 2,0 4,-1 4,-3 1,-2 1,-4 0,-5 0,-3 1,-6 -1,-7 -1,-2 -3,-2 -5,-2 0,-1 -1,-1 0,-1 0,-1 0,0 0,0l0 0z"/>
  <path class="fil3" d="M138 73c1,0 4,-1 3,1 -2,1 -4,1 -7,1 0,-1 0,-1 0,-2 1,-1 4,0 6,0l-2 0z"/>
  <path class="fil3" d="M140 80c1,-1 -1,-2 0,-2 1,-1 2,2 2,3 -1,2 -4,1 -6,1 -1,0 -1,-1 0,-1 1,-1 2,0 4,0 0,0 0,-1 0,-1z"/>
  <path class="fil3" d="M138 89c0,-2 0,-3 0,-5 1,0 2,0 2,0 1,0 1,1 1,1 0,2 1,5 0,7 -1,1 -5,0 -7,0 -1,0 -1,-2 -1,-2 2,-1 3,-1 5,-2l0 1z"/>
  <path class="fil3" d="M132 105c4,-1 8,1 11,0 1,2 1,4 0,6 0,2 -3,3 -4,1 -2,-1 -3,-4 -5,-6 0,0 -1,0 -2,0 0,0 -1,-1 -1,-1 1,0 1,0 1,0z"/>
  <path class="fil3" d="M134 123c3,0 7,1 10,0 0,2 1,5 -1,7 -1,0 -3,0 -4,0 -1,-1 -1,-3 -2,-5 0,0 0,0 -1,-1 -1,0 -2,0 -3,-1 0,0 0,0 1,0z"/>
  <path class="fil3" d="M146 150c1,0 1,-1 1,-2 1,-2 0,-3 0,-4 -1,0 -1,-1 -2,0 0,0 -1,0 -1,1 -1,0 -1,1 -2,1 0,0 0,1 0,1 -4,1 -9,0 -13,0 0,1 -1,2 0,2 0,1 1,1 2,0 0,0 1,1 1,2 1,0 1,-1 2,-1 1,0 2,0 2,1 0,0 0,0 0,0 0,1 0,1 0,1 -1,1 -2,0 -2,0 0,1 0,2 1,2 1,0 2,0 2,0 1,-1 0,-3 1,-4 0,0 1,0 1,0 0,1 0,2 -1,3 0,0 0,0 0,1 2,-1 5,0 6,-1 1,-1 1,-3 2,-3z"/>
  <path class="fil3" d="M132 153c0,0 -1,0 -1,0 1,1 1,1 2,0 0,0 -1,0 -1,0z"/>
  <path class="fil3" d="M144 164c0,0 0,1 1,1 1,0 2,-1 4,-1 0,1 1,1 2,1 1,-2 -1,-4 -3,-4 -1,0 -2,1 -3,0 -2,-1 -4,-1 -6,-1 -1,0 -1,1 -2,2 0,0 0,1 1,1 1,0 2,0 2,-1 2,-1 3,2 5,3l-1 -1z"/>
  <path class="fil3" d="M130 170c0,-1 1,-1 1,-1 0,-1 2,0 2,0 0,1 0,3 -1,3 -1,1 -1,0 -2,1 0,0 0,1 0,1 1,0 2,0 2,0 2,-1 0,-3 2,-4 1,-1 2,0 2,2 1,1 0,1 -1,1 0,0 0,1 0,1 1,0 2,1 3,0 0,-1 0,-2 0,-4 1,0 2,1 3,2 0,1 -1,1 -2,1 0,2 2,2 3,1 0,-1 0,-2 0,-3 0,0 1,0 2,1 0,0 -1,1 -1,1 1,2 3,1 5,1 -1,-2 -1,-5 -1,-7 -3,-1 -7,0 -10,-1 -2,-1 -5,-1 -7,0 -1,0 -1,2 0,4z"/>
  <path class="fil3" d="M134 184c1,-1 1,-3 0,-4 0,-1 -1,-1 -2,0 0,0 0,0 0,1 0,1 -1,3 0,3 1,0 1,0 2,1 0,0 1,-1 1,-1 0,-1 -1,-1 -1,0z"/>
  <path class="fil3" d="M136 185c0,-2 0,-4 1,-5 0,-1 1,-2 2,-1 1,3 0,6 1,8 -2,0 -2,-1 -3,-2 0,0 0,0 -1,0z"/>
  <path class="fil3" d="M142 188c0,-3 -1,-5 0,-8 0,0 0,-1 1,-1 1,0 2,0 2,1 1,4 1,6 1,10 0,0 -1,0 -2,-1 0,-1 -1,-1 -2,-2l0 1z"/>
  <path class="fil3" d="M148 177c0,0 1,-1 2,0 0,0 1,0 1,1 2,4 3,8 5,12 -2,1 -4,1 -6,0 -1,0 -1,0 -1,-1 -1,-2 -1,-6 -2,-10 -1,0 0,-2 1,-2z"/>
  <path class="fil0" d="M137 105c1,0 4,0 7,-1 7,0 14,-4 16,-6 2,-2 1,-2 2,-3 2,0 3,-4 5,-6 1,-1 1,-4 3,-7 2,-4 2,-9 2,-9 2,-2 0,-6 0,-6 0,0 0,-4 0,-6 0,-2 0,-7 1,-10 1,-4 1,-6 -2,-7 -4,-1 -9,-1 -11,0 -2,1 -6,5 -4,7 2,2 4,6 5,8 0,2 1,8 1,8 -1,1 0,1 0,2 0,1 0,2 0,2 0,0 -1,6 -2,7 -2,1 -1,3 -1,3 -2,1 -3,5 -3,5 0,0 -3,3 -4,4 -3,2 -4,2 -7,2 -2,1 -6,2 -8,2 -2,-1 -5,-1 -7,-1 -2,-1 -6,-1 -8,-4 -2,-3 -3,-3 -3,-3 0,0 -1,-5 -3,-5 0,0 0,-2 -1,-3 -1,-1 -2,-6 -2,-6 0,0 0,-1 0,-2 0,-1 1,-1 0,-2 0,0 0,-7 0,-9 1,-2 3,-6 5,-8 2,-2 1,-5 0,-6 -2,-1 -11,-2 -14,-1 -4,1 -6,4 -4,7 2,2 3,7 3,9 0,2 0,6 0,6 0,0 -1,3 1,6 0,0 0,6 2,10 2,3 2,6 3,8 1,1 3,5 4,5 2,0 1,1 3,3 2,2 7,6 14,6 3,1 6,1 7,1l0 0z"/>
  <path class="fil1 str5" d="M137 105c1,0 4,0 7,-1 7,0 14,-4 16,-6 2,-2 1,-2 2,-3 2,0 3,-4 5,-6 1,-1 1,-4 3,-7 2,-4 2,-9 2,-9 2,-2 0,-6 0,-6 0,0 0,-4 0,-6 0,-2 0,-7 1,-10 1,-4 1,-6 -2,-7 -4,-1 -9,-1 -11,0 -2,1 -6,5 -4,7 2,2 4,6 5,8 0,2 1,8 1,8 -1,1 0,1 0,2 0,1 0,2 0,2 0,0 -1,6 -2,7 -2,1 -1,3 -1,3 -2,1 -3,5 -3,5 0,0 -3,3 -4,4 -3,2 -4,2 -7,2 -2,1 -6,2 -8,2 -2,-1 -5,-1 -7,-1 -2,-1 -6,-1 -8,-4 -2,-3 -3,-3 -3,-3 0,0 -1,-5 -3,-5 0,0 0,-2 -1,-3 -1,-1 -2,-6 -2,-6 0,0 0,-1 0,-2 0,-1 1,-1 0,-2 0,0 0,-7 0,-9 1,-2 3,-6 5,-8 2,-2 1,-5 0,-6 -2,-1 -11,-2 -14,-1 -4,1 -6,4 -4,7 2,2 3,7 3,9 0,2 0,6 0,6 0,0 -1,3 1,6 0,0 0,6 2,10 2,3 2,6 3,8 1,1 3,5 4,5 2,0 1,1 3,3 2,2 7,6 14,6 3,1 6,1 7,1l0 0z"/>
  <path class="fil0" d="M138 141c-8,0 -19,-1 -19,-1 -1,0 -7,-2 -7,-2 -2,0 -4,-2 -4,-2l0 0c-6,0 -5,-3 -5,-3 -4,0 -6,-3 -6,-3 -4,-1 -6,-5 -6,-5 -3,0 -4,-4 -4,-4 -1,0 -3,-4 -3,-4 -1,0 -3,-4 -3,-4 -3,-2 -5,-7 -5,-7 -3,-2 -3,-8 -4,-9 -2,-2 -2,-3 -3,-4 -1,-1 -1,-6 -1,-8 0,-2 0,-2 -1,-6 -1,-5 -1,-9 -1,-9 0,-3 0,-7 0,-7 0,0 0,-2 0,-4 0,-2 1,-5 -1,-8 -2,-3 -1,-6 3,-7 3,-1 6,-1 8,0 2,1 3,5 1,7 -2,2 0,7 -1,9 0,2 1,7 1,7 1,1 0,2 1,3 1,1 0,2 0,2 0,0 0,2 0,4 0,1 2,3 2,3 -1,2 0,5 0,5 0,0 2,4 3,6 0,2 0,2 2,5 0,0 0,4 1,5 0,0 1,3 3,5 0,0 2,2 3,4 0,0 3,2 5,5 0,0 3,1 4,3 1,1 5,3 9,6 0,0 4,2 5,2 0,0 3,1 4,2 0,0 6,1 7,2 0,0 4,1 5,1 3,0 4,0 6,0 3,0 4,0 6,0 2,0 5,-1 5,-1 1,-1 7,-2 7,-2 1,-1 5,-1 5,-1 1,0 6,-2 6,-3 3,-2 8,-4 8,-5 1,-2 6,-4 6,-4 2,-3 3,-4 3,-4 1,-2 3,-5 3,-5 2,-2 4,-4 4,-4 1,-2 2,-5 2,-5 1,-3 0,-4 1,-5 1,-3 2,-7 2,-7 0,0 1,-2 1,-4 0,0 0,-3 0,-4 0,-2 1,-3 1,-3 0,0 -1,-2 0,-3 1,-1 0,-4 0,-5 0,0 1,-3 1,-5 -1,-2 0,-7 -2,-9 -2,-2 0,-6 2,-7 2,-1 5,-2 9,-1 3,1 4,5 2,8 -2,3 -1,6 -1,8 0,2 0,4 0,4 0,0 1,4 1,7 0,0 0,4 -1,9 -1,4 -1,4 -1,6 -1,1 -1,7 -2,8 -1,1 -1,4 -3,6 0,1 0,4 -3,6 0,0 -1,6 -4,9 0,0 -1,3 -2,3 0,0 -3,4 -5,4 0,0 -1,4 -4,5 0,0 -3,3 -7,4 0,0 -1,4 -5,4 0,0 0,2 -6,2 -1,0 -1,1 -3,1 -1,1 -3,1 -5,2 -1,0 -7,2 -9,2 -1,0 -5,0 -11,0z"/>
  <path class="fil1 str5" d="M138 141c-8,0 -19,-1 -19,-1 -1,0 -7,-2 -7,-2 -2,0 -4,-2 -4,-2l0 0c-6,0 -5,-3 -5,-3 -4,0 -6,-3 -6,-3 -4,-1 -6,-5 -6,-5 -3,0 -4,-4 -4,-4 -1,0 -3,-4 -3,-4 -1,0 -3,-4 -3,-4 -3,-2 -5,-7 -5,-7 -3,-2 -3,-8 -4,-9 -2,-2 -2,-3 -3,-4 -1,-1 -1,-6 -1,-8 0,-2 0,-2 -1,-6 -1,-5 -1,-9 -1,-9 0,-3 0,-7 0,-7 0,0 0,-2 0,-4 0,-2 1,-5 -1,-8 -2,-3 -1,-6 3,-7 3,-1 6,-1 8,0 2,1 3,5 1,7 -2,2 0,7 -1,9 0,2 1,7 1,7 1,1 0,2 1,3 1,1 0,2 0,2 0,0 0,2 0,4 0,1 2,3 2,3 -1,2 0,5 0,5 0,0 2,4 3,6 0,2 0,2 2,5 0,0 0,4 1,5 0,0 1,3 3,5 0,0 2,2 3,4 0,0 3,2 5,5 0,0 3,1 4,3 1,1 5,3 9,6 0,0 4,2 5,2 0,0 3,1 4,2 0,0 6,1 7,2 0,0 4,1 5,1 3,0 4,0 6,0 3,0 4,0 6,0 2,0 5,-1 5,-1 1,-1 7,-2 7,-2 1,-1 5,-1 5,-1 1,0 6,-2 6,-3 3,-2 8,-4 8,-5 1,-2 6,-4 6,-4 2,-3 3,-4 3,-4 1,-2 3,-5 3,-5 2,-2 4,-4 4,-4 1,-2 2,-5 2,-5 1,-3 0,-4 1,-5 1,-3 2,-7 2,-7 0,0 1,-2 1,-4 0,0 0,-3 0,-4 0,-2 1,-3 1,-3 0,0 -1,-2 0,-3 1,-1 0,-4 0,-5 0,0 1,-3 1,-5 -1,-2 0,-7 -2,-9 -2,-2 0,-6 2,-7 2,-1 5,-2 9,-1 3,1 4,5 2,8 -2,3 -1,6 -1,8 0,2 0,4 0,4 0,0 1,4 1,7 0,0 -1,4 -1,9 -1,4 -1,4 -1,6 -1,1 -1,7 -2,8 -1,1 -1,4 -3,6 0,1 0,4 -3,6 0,0 -1,6 -4,9 0,0 -1,3 -2,3 0,0 -3,4 -5,4 0,0 -1,4 -4,5 0,0 -3,3 -7,4 0,0 -1,4 -5,4 0,0 0,2 -6,2 -1,0 -1,1 -3,1 -1,1 -3,1 -5,2 -1,0 -7,2 -9,2 -1,0 -5,0 -11,0z"/>
  <path class="fil0" d="M137 123c6,0 8,0 8,0 2,0 8,-2 8,-2 6,-1 9,-4 9,-4 3,-1 3,-2 3,-2 2,0 5,-2 5,-2 2,0 3,-3 3,-3 1,-1 3,-3 3,-3 2,-1 4,-5 5,-6 1,-2 2,-4 2,-5 1,-1 3,-8 4,-10 0,-1 1,-2 2,-6 0,-5 1,-12 1,-12 0,-3 0,-5 0,-5 0,0 -1,-2 -1,-4 0,-2 1,-7 3,-10 2,-3 -2,-6 -5,-7 -4,0 -6,2 -8,3 -2,1 -4,5 -2,7 2,2 2,6 2,8 0,2 1,5 1,5 -1,1 -1,3 -1,4 0,1 -1,3 -1,3 0,0 0,2 0,3 0,2 1,4 1,4 -2,0 -1,5 -1,5 0,0 -3,4 -4,7 0,2 -2,3 -3,6 0,0 -2,0 -2,1 0,0 -4,2 -6,5 0,0 -3,2 -4,4 0,0 -4,0 -6,2 0,0 -6,3 -7,3 -1,1 -2,0 -4,0 0,0 -4,0 -5,0 -1,0 -5,0 -5,0 -1,0 -3,-1 -4,-1 -2,-1 -7,-3 -7,-3 -1,-1 -5,-2 -5,-2 -1,-2 -4,-3 -4,-3 -2,-2 -3,-3 -3,-3 -1,-1 -3,-4 -3,-4 -2,-2 -4,-4 -5,-6 -1,-2 -3,-5 -3,-5 0,0 0,-6 -2,-7 0,0 0,-1 0,-3 0,-1 0,-3 0,-3 0,0 -1,-2 -1,-3 0,-1 1,-1 0,-2 0,0 0,-5 0,-7 1,-2 -1,-7 1,-9 2,-2 1,-6 -1,-7 -2,-1 -6,-2 -9,-1 -4,1 -6,4 -4,7 2,2 3,7 3,9 0,2 0,5 0,5 0,0 0,2 0,5 0,0 1,6 2,11 0,4 1,5 1,6 1,2 3,7 4,8 0,1 1,2 2,4 1,1 3,7 6,8 0,0 2,2 2,2 0,0 2,4 4,4 0,0 3,2 4,3 0,0 2,2 5,2 0,0 1,2 6,3 0,0 5,2 7,2 0,0 3,1 9,1z"/>
  <path class="fil1 str5" d="M137 123c6,0 8,0 8,0 2,0 8,-2 8,-2 6,-1 9,-4 9,-4 3,-1 3,-2 3,-2 2,0 5,-2 5,-2 2,0 3,-3 3,-3 1,-1 3,-3 3,-3 2,-1 4,-5 5,-6 1,-2 2,-4 2,-5 1,-1 3,-8 4,-10 0,-1 1,-2 2,-6 0,-5 1,-12 1,-12 0,-3 0,-5 0,-5 0,0 -1,-2 -1,-4 0,-2 1,-7 3,-10 2,-3 -2,-6 -5,-7 -4,0 -6,2 -8,3 -2,1 -4,5 -2,7 2,2 2,6 2,8 0,2 1,5 1,5 -1,1 -1,3 -1,4 0,1 -1,3 -1,3 0,0 0,2 0,3 0,2 1,4 1,4 -2,0 -1,5 -1,5 0,0 -3,4 -4,7 0,2 -2,3 -3,6 0,0 -2,0 -2,1 0,0 -4,2 -6,5 0,0 -3,2 -4,4 0,0 -4,0 -6,2 0,0 -6,3 -7,3 -1,1 -2,0 -4,0 0,0 -4,0 -5,0 -1,0 -5,0 -5,0 -1,0 -3,-1 -4,-1 -2,-1 -7,-3 -7,-3 -1,-1 -5,-2 -5,-2 -1,-2 -4,-3 -4,-3 -2,-2 -3,-3 -3,-3 -1,-1 -3,-4 -3,-4 -2,-2 -4,-4 -5,-6 -1,-2 -3,-5 -3,-5 0,0 0,-6 -2,-7 0,0 0,-1 0,-3 0,-1 0,-3 0,-3 0,0 -1,-2 -1,-3 0,-1 1,-1 0,-2 0,0 0,-5 0,-7 1,-2 -1,-7 1,-9 2,-2 1,-6 -1,-7 -2,-1 -6,-2 -9,-1 -4,1 -6,4 -4,7 2,2 3,7 3,9 0,2 0,5 0,5 0,0 0,2 0,5 0,0 1,6 2,11 0,4 1,5 1,6 1,2 3,7 4,8 0,1 1,2 2,4 1,1 3,7 6,8 0,0 2,2 2,2 0,0 2,4 4,4 0,0 3,2 4,3 0,0 2,2 5,2 0,0 1,2 6,3 0,0 5,2 7,2 0,0 3,1 9,1z"/>
  <path class="fil3" d="M109 61c-1,-1 -2,-3 -2,-4 -1,-1 0,-3 -1,-4 -1,-1 -2,-1 -2,-2 -1,0 -1,-2 0,-2 2,-1 5,-1 7,0 1,0 2,0 2,0 1,1 2,2 2,3 -1,1 -2,3 -3,4 -1,2 0,5 0,7 0,2 -2,3 -4,4 0,0 -1,0 -2,-1 -1,-2 2,-2 3,-4 0,0 0,-1 0,-1z"/>
  <path class="fil3" d="M108 69c2,1 3,0 4,1 1,0 1,0 0,0 -1,2 -2,1 -4,1 -1,0 -2,1 -3,-1 0,0 0,0 0,0 1,-1 3,-1 4,-1l-1 0z"/>
  <path class="fil3" d="M108 77c1,0 3,-2 3,-1 0,1 -2,1 -3,1 0,0 0,0 0,0z"/>
  <path class="fil3" d="M108 82c0,0 -1,-1 0,-2 0,0 1,0 1,-1 2,0 3,0 5,0 1,0 1,1 1,1 -2,1 -5,0 -6,2 0,0 -1,0 -1,0l0 0z"/>
  <path class="fil3" d="M113 88c-1,0 -1,1 -1,1 -1,0 0,-1 0,-1 0,0 0,-1 1,-1 -1,-2 1,-3 3,-3 0,0 1,1 0,2 0,1 -2,2 -3,2z"/>
  <path class="fil3" d="M116 90c1,-1 2,-2 3,-1 0,0 0,0 0,1 0,1 -2,1 -2,2 -1,0 -2,0 -2,0 0,-1 0,-2 1,-2z"/>
  <path class="fil3" d="M119 95c3,4 8,4 12,6 0,0 0,1 -1,1 -3,0 -6,-1 -9,-3 -2,-1 -5,-3 -3,-5 0,-1 1,1 1,1z"/>
  <path class="fil3" d="M137 101c4,0 8,-1 12,-3 1,0 1,-1 2,-1 1,-1 2,-2 2,-1 2,0 2,2 1,3 -3,2 -6,3 -9,3 -4,1 -11,2 -11,-1 1,0 3,0 4,0l-1 0z"/>
  <path class="fil3" d="M155 93c0,0 0,0 1,0 0,-1 1,0 2,-1 0,0 1,-1 1,-2 1,0 3,1 3,2 0,0 0,1 0,1 -1,1 -1,2 -2,2 0,0 -1,1 -1,1 -2,1 -3,-1 -4,-3z"/>
  <path class="fil3" d="M163 90c0,0 -1,-1 -1,-1 1,-1 3,-1 4,-2 1,2 0,3 -1,4 -1,0 -1,0 -2,0 0,0 0,-1 0,-1z"/>
  <path class="fil3" d="M164 82c0,0 -1,1 -1,1 1,0 3,1 3,1 2,1 3,-3 3,-5 0,-1 -1,0 -2,-1 -1,0 0,1 -1,2 0,1 -1,1 -2,2z"/>
  <path class="fil3" d="M170 77c-2,0 -3,-1 -4,-2 0,0 -1,0 -1,0 1,-1 2,-1 2,-2 1,0 2,1 3,2 0,0 0,0 0,0 0,1 0,1 0,1 0,0 0,1 0,1z"/>
  <path class="fil3" d="M170 70c-2,1 -2,0 -4,0 -1,1 2,2 5,2 0,0 1,-2 0,-3 0,-1 -1,1 -1,1z"/>
  <path class="fil3" d="M161 50c3,0 6,0 9,0 1,0 1,1 1,1 0,2 -2,3 -1,5 1,3 0,6 1,9 0,1 0,2 -1,3 -1,1 -4,0 -5,-1 -1,0 -1,-1 0,-1 1,-1 2,0 2,-1 2,-1 2,-2 2,-4 -1,-1 -2,-1 -4,-1 2,0 3,-2 2,-2 -1,-1 -2,-1 -3,-2 0,0 0,-1 -1,-2 0,-1 -2,-1 -2,-2 -1,0 -1,-1 0,-2z"/>
  <path class="fil3" d="M87 49c2,0 3,0 5,0 0,0 2,0 2,0 -1,2 -1,3 -1,5 0,2 0,5 0,7 1,2 0,4 0,6 0,0 0,0 0,0 0,2 0,0 -1,2 0,0 -1,0 -1,0 -1,0 -1,-1 -1,-2 1,-3 1,-3 1,-6 0,-1 -1,-2 -2,-2 0,-1 0,-1 -1,-1 0,-2 0,-4 0,-5 -1,-1 -2,-1 -2,-2 -1,-1 0,-2 0,-2 0,0 1,0 1,0 0,0 0,0 0,0z"/>
  <path class="fil3" d="M90 70c2,0 3,-1 5,0 0,0 0,1 0,1 -1,1 -3,0 -4,0 -2,1 -3,1 -4,0 0,0 0,-1 0,-1 1,0 3,0 4,0l-1 0z"/>
  <path class="fil3" d="M95 78c0,-1 -1,-2 -2,-1 0,0 0,1 -1,2 -1,0 -1,1 0,1 1,1 4,0 3,-2z"/>
  <path class="fil3" d="M94 89c0,-1 -1,0 -1,0 1,1 1,1 2,1 0,-1 -1,-1 -1,-1z"/>
  <path class="fil3" d="M95 92c-1,0 -2,0 -3,1 0,0 0,0 0,0 1,1 1,1 2,1 1,-1 2,-1 2,-2 0,0 -1,0 -1,0z"/>
  <path class="fil3" d="M96 96c0,1 -1,1 -1,1 -1,1 0,1 0,1 1,0 3,-1 3,-2 -1,0 -1,0 -2,0 0,0 0,0 0,0z"/>
  <path class="fil3" d="M103 102c-2,0 -2,1 -2,2 0,1 1,1 1,1 1,0 3,-3 3,-4 -1,0 -2,1 -3,1 0,0 0,0 1,0z"/>
  <path class="fil3" d="M106 108c-1,0 -1,1 -1,1 0,1 0,2 1,2 1,-1 2,-1 2,-3 0,0 1,0 1,0 0,-1 1,-2 0,-2 -1,-1 -2,1 -3,2z"/>
  <path class="fil3" d="M111 111c-1,0 -2,1 -1,1 0,1 1,3 1,2 2,-2 2,-4 3,-6 -2,0 -3,2 -4,3l1 0z"/>
  <path class="fil3" d="M115 113c2,1 6,5 14,6 1,0 3,0 3,0 0,1 -1,1 -1,1 -9,-1 -11,-2 -16,-5 -1,0 -2,-1 -2,-1 0,-1 1,-1 2,-1z"/>
  <path class="fil3" d="M138 120c-1,0 -2,0 -2,0 4,-2 8,0 12,-2 1,0 2,0 3,-1 7,-2 8,-4 10,-4 0,-1 3,2 2,2 -3,2 -5,3 -10,5 -5,2 -7,2 -12,1 -1,0 -2,0 -3,-1z"/>
  <path class="fil3" d="M167 112c-1,0 -2,-1 -2,-1 -1,1 0,3 1,3 1,0 3,0 3,-1 1,-2 -1,-3 -2,-5 0,2 1,3 -1,3l1 1z"/>
  <path class="fil3" d="M170 104c0,0 0,0 0,0 0,1 0,1 0,1 -1,1 -1,1 -2,1 0,0 1,1 1,1 0,0 0,0 0,0 1,1 2,2 4,2 0,0 0,0 0,-1 0,0 0,-1 -1,-1 0,-1 0,-1 0,-1 0,-1 -1,-3 -2,-2 0,0 0,0 0,0z"/>
  <path class="fil3" d="M175 101c-1,0 -2,0 -2,0 -1,1 0,1 0,2 1,0 2,1 2,1 0,1 1,1 1,1 0,0 1,0 1,0 0,-1 0,-1 1,-2 0,0 2,0 2,-1 0,0 0,-1 0,-2 -1,-1 -2,-2 -4,-2 -1,0 0,2 0,2 -1,1 -2,1 -2,1l1 0z"/>
  <path class="fil3" d="M181 95c-1,0 -2,-2 -2,-1 0,1 -2,1 -1,2 0,0 1,0 2,1 1,1 2,0 2,-1 1,-1 0,-1 -1,-1z"/>
  <path class="fil3" d="M184 93c0,0 0,-1 0,-1 -2,-1 -4,-2 -6,-1 -1,0 0,0 0,0 1,1 3,1 4,2 0,0 2,0 2,0z"/>
  <path class="fil3" d="M180 83c0,-1 1,-1 1,-1 2,0 4,0 5,1 -1,2 0,4 -2,6 0,0 -2,0 -3,-1 0,0 0,-1 0,-1 2,-1 3,-2 2,-3 -1,-2 -2,0 -3,-1 0,0 -1,-1 0,-1 0,0 0,0 0,0l0 1z"/>
  <path class="fil3" d="M185 75c0,-1 0,-2 0,-3 0,0 0,-1 0,-1 1,0 1,0 2,1 2,2 1,5 -1,7 0,0 -1,0 -2,0 -2,-1 0,-3 1,-5l0 1z"/>
  <path class="fil3" d="M182 68c0,0 0,1 1,1 1,0 3,0 4,-1 1,0 1,-2 1,-2 0,-3 -1,-7 -1,-10 1,-1 0,-2 1,-3 0,-1 1,-2 1,-3 0,-1 0,-2 0,-3 0,0 -1,-1 -2,0 0,0 -1,1 -1,2 0,0 -1,0 -1,0 -2,1 -3,1 -4,1 -1,0 -2,1 -1,1 1,1 3,1 3,1 2,1 2,4 2,6 -1,1 -1,2 -2,2 1,1 1,3 1,5 0,1 -1,2 -1,2 0,1 -1,1 -1,1l0 0z"/>
  <path class="fil3" d="M204 61c-1,-2 -1,-5 -1,-6 -1,-2 -4,-3 -4,-5 -1,-4 4,-3 7,-3 1,0 2,1 2,3 -1,3 -4,6 -3,9 1,2 2,5 1,6 -1,2 -2,2 -4,1 0,0 0,-1 0,-1 1,-1 3,-2 2,-4z"/>
  <path class="fil3" d="M206 68c-1,0 -3,-1 -3,0 1,1 3,1 4,0 0,0 0,0 0,0 0,-1 -1,0 -1,0z"/>
  <path class="fil3" d="M204 72c1,-1 1,-1 2,-2 0,-1 1,-1 1,0 0,2 0,4 -1,6 0,0 -1,0 -1,0 -1,-2 -3,-1 -4,-2 -1,0 -1,-1 -1,-2 2,0 3,-1 4,-1 0,0 0,1 0,1z"/>
  <path class="fil3" d="M204 77c-2,1 -3,0 -5,0 0,0 0,1 0,1 0,1 1,1 1,1 2,0 4,1 5,1 1,0 1,-1 1,-1 -1,-1 -1,-2 -2,-2z"/>
  <path class="fil3" d="M204 84c0,0 -1,0 -1,0 -1,1 -1,2 -1,3 -1,1 -3,0 -5,0 0,0 1,1 1,1 1,1 2,1 4,2 0,0 1,0 1,-1 0,-1 1,-2 2,-3 0,-1 0,-2 0,-2 0,0 -1,0 -1,0z"/>
  <path class="fil3" d="M197 91c2,0 4,0 6,2 0,1 0,2 0,3 -1,1 -2,2 -4,1 -1,0 -2,-1 -1,-2 0,0 2,-1 1,-2 0,0 0,-1 -1,-1 0,0 -1,0 -1,0 0,0 0,-1 0,-1z"/>
  <path class="fil3" d="M197 101c0,-1 0,-1 0,-1 -1,-1 -3,-2 -2,-2 2,-1 5,2 4,4 -1,2 -3,2 -4,1 -1,0 -2,0 -2,-1 0,0 0,-1 1,-1 0,-1 2,0 3,0z"/>
  <path class="fil3" d="M196 108c-2,0 -4,-1 -6,0 1,1 1,2 2,2 1,0 1,1 2,1 0,1 0,1 0,1 1,0 1,-1 1,-2 1,0 1,0 1,-1 0,0 1,-1 0,-1z"/>
  <path class="fil3" d="M191 112c-1,0 -1,-1 -1,0 -1,0 0,1 0,2 -1,1 -2,0 -3,0 0,0 -1,0 0,1 1,1 1,2 3,3 1,0 1,-1 1,-2 1,-1 2,-1 2,-2 0,-1 -1,-2 -2,-3 0,1 0,1 0,1z"/>
  <path class="fil3" d="M185 118c0,-1 -1,-1 -1,-2 -1,-1 1,-1 1,-1 1,1 2,3 2,6 0,0 -2,1 -2,1 -2,-1 -5,-2 -4,-3 0,-1 2,0 4,-1 0,0 -1,0 -1,0l1 0z"/>
  <path class="fil3" d="M182 125c1,-1 0,-2 -1,-2 -1,-1 -3,0 -4,-1 -1,0 -1,0 -2,0 2,2 2,4 4,5 1,0 2,1 2,0 0,-1 1,-2 1,-3l0 1z"/>
  <path class="fil3" d="M175 126c-1,0 -1,-1 -2,-1 0,1 1,2 -1,2 -1,0 -1,-1 -1,-2 0,0 -1,0 -1,0 0,1 0,1 0,1 1,2 2,4 4,5 1,0 2,-1 2,-2 1,-1 0,-3 -1,-3z"/>
  <path class="fil3" d="M140 140c3,0 6,0 9,-1 6,-1 11,-3 16,-4 2,-1 5,-1 6,-4 0,-1 -1,-2 -2,-2 -2,1 -4,1 -6,3 0,0 -1,0 -1,0 -2,1 -4,2 -5,3 -4,1 -7,2 -11,3 -2,0 -5,0 -8,1 0,0 0,0 0,0 1,1 3,1 4,1l-2 0z"/>
  <path class="fil3" d="M104 132c2,1 3,2 5,3 5,3 11,3 17,4 3,0 5,0 7,0 0,-1 1,-1 1,-1 -1,-1 -2,-1 -3,-1 -3,0 -5,0 -8,0 -4,-1 -8,-2 -12,-4 -1,-1 -1,-1 -2,-2 0,-1 -1,-3 -2,-4 0,0 0,0 0,0 -2,2 -2,3 -3,5 0,0 1,0 1,0l-1 0z"/>
  <path class="fil3" d="M102 130c0,-3 3,-4 4,-6 0,-3 -4,0 -5,0 -2,0 -2,1 -2,3 0,0 -1,1 -1,1 0,1 1,2 3,2 0,0 1,1 1,0z"/>
  <path class="fil3" d="M95 126c3,-1 4,-4 6,-6 0,-1 -1,-2 -1,-1 -1,1 -2,3 -4,2 -1,0 0,-1 0,-1 -1,-1 -1,-1 -2,-1 0,1 0,1 0,2 -1,0 -1,0 -1,0 0,0 0,1 0,1 -1,1 -1,1 -1,2 1,1 2,2 3,2z"/>
  <path class="fil3" d="M87 119c1,0 1,1 2,1 1,0 1,-2 2,-2 0,0 1,-1 1,-1 0,0 0,-1 0,-1 -1,-1 -1,-1 -2,-2 0,0 -1,0 -2,0 0,1 0,1 0,1 0,1 -1,1 -2,1 0,0 -1,1 0,1 0,1 1,1 2,1 0,0 -1,1 -1,1z"/>
  <path class="fil3" d="M83 111c0,1 -2,1 -1,2 0,0 1,1 2,1 1,-1 2,-1 2,-2 0,-1 1,-2 1,-2 -1,0 -3,1 -4,1z"/>
  <path class="fil3" d="M81 107c0,1 -1,0 -2,1 0,0 -1,0 0,1 0,0 1,0 1,1 2,0 4,-2 5,-4 0,0 0,0 0,0 -1,0 -2,0 -2,0 -1,1 -1,1 -2,1z"/>
  <path class="fil3" d="M75 101c2,2 6,0 7,-2 1,-1 1,-1 1,-2 -1,0 -1,0 -2,0 -2,2 -4,2 -6,3 0,0 0,1 0,1z"/>
  <path class="fil3" d="M76 95c2,0 3,-3 2,-5 0,0 0,-1 -1,-1 0,-1 0,-1 -1,-1 0,-1 -1,-1 -1,-1 -1,0 -1,1 -1,1 1,0 2,1 2,2 -1,1 -2,0 -2,2 -1,-1 0,0 -1,0 0,2 1,1 2,2 1,0 1,1 1,1z"/>
  <path class="fil3" d="M72 80c2,0 4,0 4,-2 1,-1 0,-4 0,-6 0,1 0,0 0,0 -1,2 -1,4 -2,4 -1,1 -2,2 -3,3 -1,1 2,0 2,1l-1 0z"/>
  <path class="fil3" d="M75 49c0,-1 0,-2 -1,-1 -1,1 -2,2 -3,2 -1,0 -2,1 -1,2 0,1 2,1 2,2 1,1 2,2 1,4 0,1 -1,1 -1,2 0,0 0,0 0,0 0,0 0,-1 0,0 -1,2 -1,6 -3,7 0,3 3,2 5,1 0,-4 1,-9 0,-14 0,-2 1,-4 1,-5 0,0 0,0 0,0z"/>
  <path class="fil0" d="M65 249l-1 8c0,0 5,0 1,3 0,0 0,1 0,5 0,5 0,15 -1,17l20 0c1,0 1,0 1,2 0,2 2,6 -2,7 -3,1 -5,1 -6,1l-2 8c0,0 9,-3 12,-4 2,-2 5,-3 5,-8 0,-5 0,-14 1,-15l-20 0 0 -2c0,0 0,-12 1,-13 0,-3 0,-6 2,-7 1,0 1,-2 -1,-1 -1,0 -8,0 -10,-1z"/>
  <path class="fil3" d="M67 251l1 5c0,0 5,-1 1,2 0,0 0,4 0,8 0,4 0,12 -1,13l19 0c1,0 1,1 1,2 0,2 1,10 -2,11 -3,1 -5,2 -6,2l-1 3c0,0 8,-3 10,-5 1,-1 1,-2 1,-6 0,-4 -1,-8 0,-9l-18 0 0 -1c0,0 0,-18 0,-19 0,-2 0,-3 1,-4 1,0 1,-2 -1,-1 0,0 -4,0 -5,-1z"/>
  <path class="fil0" d="M113 292l-4 8 -12 0c0,0 2,-9 2,-12 0,-2 -2,-9 -2,-9 0,0 4,-5 4,-6 0,0 1,-1 2,0 1,1 13,11 17,13 0,0 1,-3 0,-4 0,-1 1,-1 -1,-1 -1,0 -2,0 -3,-1 0,0 3,-7 3,-8 0,0 2,0 3,0 2,0 5,0 6,0 2,1 1,1 1,2 0,1 0,8 0,9 0,1 0,2 -1,3 -1,0 -3,2 -3,2 0,0 -1,1 0,2 1,0 4,2 5,3l-4 7c0,0 0,0 -1,0 -1,-1 -19,-14 -19,-14 0,0 0,0 0,1 0,1 0,5 0,5l7 0z"/>
  <path class="fil3" d="M127 294l-2 3c0,0 0,-1 -1,-1 -1,-1 -20,-14 -20,-14 0,0 0,1 0,2 0,1 0,10 0,10l6 0 -2 3 -6 0c0,0 0,-6 0,-8 0,-3 -1,-9 -1,-9 0,0 1,-1 2,-2 0,0 0,0 1,0 2,2 13,13 23,16z"/>
  <path class="fil3" d="M125 285c0,0 0,-5 0,-5 -1,-1 0,-1 -1,-1 -1,0 -2,0 -3,0 0,0 1,-3 1,-4 0,0 1,0 3,0 1,0 0,0 1,0 2,0 1,2 1,3 0,1 0,1 0,1 0,2 0,4 0,4 -1,1 -2,2 -2,2z"/>
  <path class="fil0" d="M135 271l-2 9c0,0 0,2 3,2 2,0 12,0 12,0l0 18c0,0 8,-3 8,-3 0,0 1,0 1,-2 0,-1 0,-20 0,-20 0,0 0,-2 -2,-2 -3,0 -15,0 -16,0 -1,0 -3,-1 -4,-2z"/>
  <path class="fil3" d="M138 275l-1 2c0,0 1,2 3,2 2,0 11,0 11,0l0 16c0,0 2,0 3,0 0,0 0,-1 0,-2 0,-1 0,-15 0,-15 0,0 0,-2 -1,-2 -2,0 -11,0 -12,0 0,0 -2,0 -3,-1z"/>
  <path class="fil0" d="M164 271l-3 8c0,0 1,2 3,2 2,1 0,3 0,3 -1,0 -1,1 -1,2 0,2 0,14 0,14 0,0 24,-3 25,-3 2,0 2,-1 2,-1 1,-1 5,-5 5,-6 0,0 0,-1 1,-2 0,-1 1,-15 1,-15l-7 0 -2 8 2 0c0,0 0,4 0,5 -1,2 -1,3 -2,3 -1,1 -7,2 -7,2 0,0 5,-17 5,-18l-9 0 -3 7 3 1c0,0 -4,10 -5,10 0,0 -2,-3 -1,-9 1,-2 2,-7 3,-8 0,-1 -1,-1 -2,-1 -1,0 -3,0 -8,-2z"/>
  <path class="fil3" d="M167 275l-2 4c0,0 1,0 3,1 1,0 -1,3 -1,3 0,1 -1,2 -1,3 0,1 0,11 0,11 0,0 20,-3 21,-3 1,0 1,0 2,-1 1,0 4,-3 4,-4 1,0 1,-2 1,-3 0,-1 1,-9 1,-9l-3 0 -1 3 2 0c0,0 0,7 -1,8 0,1 -3,4 -4,4 0,0 -10,2 -10,2 0,0 5,-17 6,-17l-5 0 -1 2 3 0c0,0 -5,14 -6,15 0,0 -5,0 -6,0 0,-1 0,-9 0,-10 1,-2 2,-6 2,-7 1,-1 0,-1 -1,-1 -1,0 -1,0 -3,-1z"/>
  <path class="fil0" d="M202 270c0,0 2,1 4,2 1,0 4,-1 6,-1 1,0 2,2 1,4 0,2 -3,10 -2,12l-8 2 1 -7c0,0 -5,0 -5,-1l3 -11z"/>
  <path class="fil3" d="M205 276c0,0 1,0 2,0 1,0 1,0 2,0 1,0 2,0 1,2 0,2 -1,5 -1,7l-2 0 1 -5c0,0 -2,0 -4,0l1 -4z"/>
  <path class="fil0" d="M36 25c5,8 3,9 4,12 1,3 0,14 0,14 0,0 3,-7 3,-13 1,-6 -3,-12 -4,-14 -1,-1 -3,-8 -3,-8 0,0 -1,3 -3,8 -3,6 -4,11 -4,14 0,6 5,18 5,19 1,1 1,17 1,17 -6,-5 -8,-7 -10,-10 -3,-5 -4,-14 -4,-14 0,0 3,4 5,6 2,2 6,10 6,10 1,-11 -15,-24 -15,-24 0,0 -1,18 4,26 4,6 14,10 14,10l0 7 -2 -2c0,0 0,-2 -1,-4 0,0 -2,-2 -4,-1 -2,1 -1,4 0,5 1,2 3,1 3,1 0,0 3,3 4,5 0,1 0,18 0,18 -5,-4 -7,-7 -9,-10 -3,-5 -5,-13 -5,-13 0,0 4,3 6,5 2,2 5,9 5,9 1,-10 -15,-25 -15,-25 0,0 -1,17 4,26 5,7 14,11 14,11l0 7 -4 -3c0,0 1,-2 0,-4 0,0 -2,-1 -4,-1 -2,1 -2,4 -1,5 1,2 4,1 4,1 0,0 4,5 5,7 0,1 0,18 0,18 -5,-5 -7,-8 -9,-10 -3,-5 -5,-13 -5,-13 0,0 4,3 6,5 2,2 5,9 5,9 1,-11 -15,-26 -15,-26 0,0 -1,18 4,27 5,7 14,11 14,11l0 7 -4 -3c0,0 1,-2 0,-3 0,0 -2,-2 -4,-1 -2,1 -2,3 -1,4 1,2 4,1 4,1 0,0 4,5 5,7 0,1 0,18 0,18 -5,-4 -7,-7 -9,-10 -3,-5 -5,-13 -5,-13 0,0 4,3 6,5 2,2 5,9 5,9 1,-10 -15,-25 -15,-25 0,0 -1,17 4,26 5,7 14,11 14,11l0 9 -4 -2c0,0 1,-3 0,-4 0,0 -2,-2 -4,-1 -2,1 -2,3 -1,5 1,1 4,1 4,1 0,0 4,4 5,6 0,1 0,18 0,18 -5,-4 -7,-7 -9,-10 -3,-5 -5,-13 -5,-13 0,0 4,4 6,5 2,2 5,9 5,9 1,-10 -15,-25 -15,-25 0,0 -1,17 4,26 5,7 14,11 14,11l0 9 -4 -3c0,0 1,-2 0,-3 0,0 -2,-2 -4,-1 -2,1 -2,3 -1,4 1,2 4,1 4,1 0,0 4,5 5,7 0,1 0,18 0,18 -5,-4 -7,-7 -9,-10 -3,-5 -5,-13 -5,-13 0,0 4,3 6,5 2,2 5,9 5,9 1,-10 -15,-25 -15,-25 0,0 -1,17 4,26 5,7 14,11 14,11 1,5 2,11 2,11 -4,-2 -3,-4 -3,-4 0,0 0,-2 -1,-3 -2,-2 -3,-3 -5,-2 -2,1 -1,3 -1,5 1,1 3,2 3,2 2,2 9,7 9,7 6,17 21,21 21,21l-3 -10c0,0 -12,-3 -14,-10 0,0 0,-5 2,-9 0,0 4,-1 4,-2 1,-2 0,-4 -2,-4 -2,-1 -2,-1 -4,1 -1,1 0,2 0,2 0,0 2,3 -2,6 0,0 -3,-7 -3,-12 0,0 4,-10 8,-17 2,-3 6,-9 6,-9 0,13 -9,25 -9,25 13,-8 14,-25 14,-27 0,-3 -2,-10 -2,-10 0,0 -9,11 -11,17 -3,5 -4,8 -6,13 0,0 0,-10 0,-12 1,-2 6,-7 6,-7 0,0 2,0 3,-1 0,-2 1,-4 -1,-5 -2,-1 -5,1 -5,1 0,2 1,4 1,4l-4 3 0 -11c0,0 4,-9 8,-16 2,-3 6,-9 6,-9 0,13 -9,25 -9,25 13,-7 13,-25 13,-28 0,-2 -1,-9 -1,-9 0,0 -9,11 -12,16 -2,5 -3,8 -5,13 0,0 0,-9 0,-11 1,-2 6,-7 6,-7 0,0 2,0 3,-1 0,-2 1,-4 -1,-5 -2,-1 -5,1 -5,1 0,2 1,4 1,4l-4 3 0 -11c0,0 4,-9 8,-16 2,-3 6,-9 6,-9 0,13 -9,25 -9,25 13,-8 14,-25 14,-28 0,-2 -2,-9 -2,-9 0,0 -9,10 -11,15 -3,6 -4,9 -6,14 0,0 0,-10 0,-11 1,-2 6,-7 6,-7 0,0 2,0 3,-1 0,-2 1,-4 -1,-5 -2,-1 -5,1 -5,1 0,2 1,4 1,4l-4 3 0 -9c0,0 3,-9 8,-17 1,-3 4,-7 4,-7 0,13 -7,22 -7,22 12,-7 12,-21 12,-23 0,-3 -1,-12 -1,-12 0,0 -8,10 -11,15 -3,5 -3,8 -5,14 0,0 0,-10 0,-11 1,-2 4,-7 4,-7 0,0 2,1 3,0 1,-2 1,-3 -1,-5 -2,-1 -4,1 -4,1 0,2 0,3 0,3l-2 3 0 -8c0,0 2,-9 7,-16 1,-3 5,-9 5,-9 0,13 -7,21 -7,21 11,-8 13,-22 13,-24 0,-3 -1,-11 -1,-11 0,0 -10,11 -13,16 -2,5 -3,9 -4,15 0,0 0,-11 0,-12 1,-2 3,-5 3,-5 0,0 2,0 2,-2 1,-1 1,-3 -1,-3 -2,-2 -3,0 -3,0 0,2 0,4 0,4l-1 1 0 -8c0,0 2,-8 7,-16 2,-3 6,-9 6,-9 0,14 -7,21 -7,21 13,-7 12,-19 12,-21 0,-7 -1,-9 -1,-9 0,0 -11,9 -13,14 -3,5 -4,11 -6,16l0 -47z"/>
  <path class="fil3" d="M47 270c0,0 5,4 7,5 1,0 1,0 1,1 0,1 0,2 -2,1 -1,-1 -4,-3 -6,-7z"/>
  <path class="fil0" d="M238 25c-5,8 -3,9 -4,12 -1,3 0,14 0,14 0,0 -2,-7 -3,-13 -1,-6 3,-12 4,-14 1,-1 3,-8 3,-8 0,0 1,3 4,8 3,6 3,11 3,14 0,6 -5,18 -5,19 -1,1 0,17 0,17 5,-5 8,-7 9,-10 3,-5 5,-14 5,-14 0,0 -4,4 -6,6 -1,2 -6,10 -6,10 -1,-11 15,-24 15,-24 0,0 1,18 -4,26 -4,6 -14,10 -14,10l0 7 3 -2c0,0 -1,-2 0,-4 0,0 2,-2 4,-1 2,1 1,4 1,5 -1,2 -4,1 -4,1 0,0 -3,3 -4,5 0,1 0,18 0,18 6,-4 7,-7 9,-10 3,-5 5,-13 5,-13 0,0 -4,3 -6,5 -1,2 -5,9 -5,9 -1,-10 15,-25 15,-25 0,0 1,17 -4,26 -4,7 -14,11 -14,11l0 7 4 -3c0,0 -1,-2 0,-4 0,0 2,-1 4,-1 2,1 2,4 1,5 -1,2 -3,1 -3,1 0,0 -5,5 -6,7 0,1 0,18 0,18 6,-5 7,-8 9,-10 3,-5 5,-13 5,-13 0,0 -4,3 -6,5 -1,2 -5,9 -5,9 -1,-11 15,-26 15,-26 0,0 1,18 -4,27 -4,7 -14,11 -14,11l0 7 4 -3c0,0 -1,-2 0,-3 0,0 2,-2 4,-1 2,1 2,3 1,4 -1,2 -3,1 -3,1 0,0 -5,5 -6,7 0,1 0,18 0,18 6,-4 7,-7 9,-10 3,-5 5,-13 5,-13 0,0 -4,3 -6,5 -1,2 -5,9 -5,9 -1,-10 15,-25 15,-25 0,0 1,17 -4,26 -4,7 -14,11 -14,11l0 9 4 -2c0,0 -1,-3 0,-4 0,0 2,-2 4,-1 2,1 2,3 1,5 -1,1 -3,1 -3,1 0,0 -5,4 -6,6 0,1 0,18 0,18 6,-4 7,-7 9,-10 3,-5 5,-13 5,-13 0,0 -4,4 -6,5 -1,2 -5,9 -5,9 -1,-10 15,-25 15,-25 0,0 1,17 -4,26 -4,7 -14,11 -14,11l0 9 4 -3c0,0 -1,-2 0,-3 0,0 2,-2 4,-1 2,1 2,3 1,4 -1,2 -3,1 -3,1 0,0 -5,5 -6,7 0,1 0,18 0,18 6,-4 7,-7 9,-10 3,-5 5,-13 5,-13 0,0 -4,3 -6,5 -1,2 -5,9 -5,9 -1,-10 15,-25 15,-25 0,0 1,17 -4,26 -4,7 -14,11 -14,11 -1,5 -2,11 -2,11 5,-2 4,-4 4,-4 0,0 -1,-2 1,-3 1,-2 2,-3 4,-2 2,1 1,3 1,5 -1,1 -3,2 -3,2 -2,2 -8,7 -8,7 -6,17 -22,21 -22,21l3 -10c0,0 13,-3 14,-10 0,0 0,-5 -2,-9 0,0 -4,-1 -4,-2 0,-2 0,-4 2,-4 2,-1 3,-1 4,1 1,1 0,2 0,2 0,0 -2,3 2,6 0,0 3,-7 3,-12 0,0 -4,-10 -8,-17 -2,-3 -6,-9 -6,-9 0,13 9,25 9,25 -13,-8 -13,-25 -13,-27 0,-3 1,-10 1,-10 0,0 9,11 11,17 3,5 4,8 6,13 0,0 0,-10 0,-12 -1,-2 -5,-7 -5,-7 0,0 -3,0 -3,-1 -1,-2 -1,-4 1,-5 2,-1 4,1 4,1 0,2 0,4 0,4l3 3 0 -11c0,0 -4,-9 -8,-16 -2,-3 -6,-9 -6,-9 0,13 9,25 9,25 -13,-7 -13,-25 -13,-28 0,-2 1,-9 1,-9 0,0 9,11 12,16 2,5 3,8 5,13 0,0 0,-9 0,-11 -1,-2 -5,-7 -5,-7 0,0 -3,0 -3,-1 -1,-2 -1,-4 1,-5 2,-1 4,1 4,1 0,2 0,4 0,4l3 3 0 -11c0,0 -4,-9 -8,-16 -2,-3 -6,-9 -6,-9 0,13 9,25 9,25 -13,-8 -13,-25 -13,-28 0,-2 1,-9 1,-9 0,0 9,10 11,15 3,6 4,9 6,14 0,0 0,-10 0,-11 -1,-2 -5,-7 -5,-7 0,0 -3,0 -3,-1 -1,-2 -1,-4 1,-5 2,-1 4,1 4,1 0,2 0,4 0,4l3 3 0 -9c0,0 -3,-9 -7,-17 -2,-3 -5,-7 -5,-7 0,13 8,22 8,22 -13,-7 -13,-21 -13,-23 0,-3 1,-12 1,-12 0,0 9,10 11,15 3,5 3,8 5,14 0,0 0,-10 0,-11 -1,-2 -4,-7 -4,-7 0,0 -2,1 -3,0 -1,-2 -1,-3 1,-5 2,-1 4,1 4,1 1,2 0,3 0,3l2 3 0 -8c0,0 -2,-9 -6,-16 -2,-3 -6,-9 -6,-9 0,13 7,21 7,21 -11,-8 -13,-22 -13,-24 0,-3 1,-11 1,-11 0,0 10,11 13,16 2,5 3,9 4,15 0,0 0,-11 0,-12 -1,-2 -3,-5 -3,-5 0,0 -2,0 -2,-2 -1,-1 0,-3 1,-3 2,-2 3,0 3,0 1,2 0,4 0,4l1 1 0 -8c0,0 -2,-8 -7,-16 -1,-3 -6,-9 -6,-9 0,14 7,21 7,21 -13,-7 -12,-19 -12,-21 0,-7 1,-9 1,-9 0,0 11,9 13,14 3,5 4,11 6,16l0 -47z"/>
  <path class="fil3" d="M227 270c0,0 -5,4 -7,5 -1,0 -1,0 -1,1 0,1 0,2 2,1 1,-1 4,-3 6,-7z"/>
  <path class="fil4" d="M328 33l19 54 19 -54 7 0 0 62 -5 0 0 -27 0 -27 -19 54 -4 0 -19 -54 1 27 0 27 -5 0 0 -62 6 0zm93 0l5 0 0 62 -5 0 0 -53 -29 53 -5 0 0 -62 5 0 0 53 29 -53zm59 62l-5 0 0 -30 -29 0 0 30 -5 0 0 -62 5 0 0 28 29 0 0 -28 5 0 0 62zm49 -62l5 0 0 62 -5 0 0 -53 -29 53 -5 0 0 -62 5 0 0 53 29 -53zm57 43c0,7 -2,12 -5,15 -4,3 -8,5 -14,5 -6,0 -11,-2 -14,-7 -4,-5 -6,-11 -6,-19l0 -13c0,-8 2,-14 6,-18 3,-5 8,-7 14,-7 6,0 11,2 14,5 3,3 5,8 5,15l-5 0c0,-5 -1,-9 -4,-12 -2,-2 -5,-4 -10,-4 -4,0 -8,2 -11,6 -2,3 -4,8 -4,15l0 13c0,7 2,12 4,16 3,4 6,5 11,5 5,0 8,-1 10,-3 3,-3 4,-7 4,-12l5 0zm47 -39l-18 0 0 58 -5 0 0 -58 -17 0 0 -4 40 0 0 4zm39 28l-24 0 0 26 28 0 0 4 -33 0 0 -62 32 0 0 4 -27 0 0 24 24 0 0 4zm19 5l0 25 -5 0 0 -62 18 0c6,0 10,1 13,5 4,3 5,8 5,13 0,6 -1,11 -4,14 -3,3 -8,5 -14,5l-13 0zm0 -5l13 0c5,0 8,-1 10,-3 2,-3 3,-6 3,-11 0,-4 -1,-7 -3,-10 -2,-2 -5,-4 -10,-4l-13 0 0 28zm80 11c-1,7 -2,12 -6,15 -3,3 -8,5 -14,5 -6,0 -10,-2 -14,-7 -3,-5 -5,-11 -5,-19l0 -13c0,-8 2,-14 5,-18 4,-5 9,-7 15,-7 6,0 10,2 13,5 4,3 5,8 6,15l-5 0c-1,-5 -2,-9 -4,-12 -2,-2 -6,-4 -10,-4 -5,0 -8,2 -11,6 -3,3 -4,8 -4,15l0 13c0,7 1,12 4,16 2,4 6,5 10,5 5,0 9,-1 11,-3 2,-3 3,-7 4,-12l5 0zm46 -39l-17 0 0 58 -5 0 0 -58 -18 0 0 -4 40 0 0 4zm10 58l0 -62 16 0c6,0 10,1 13,4 3,3 4,7 4,12 0,3 0,6 -2,8 -1,3 -3,4 -6,5 3,1 5,3 7,6 2,2 3,6 3,9 0,6 -1,10 -4,13 -3,3 -8,5 -13,5l-18 0zm5 -30l0 26 13 0c4,0 7,-2 9,-4 2,-2 3,-5 3,-9 0,-4 -1,-7 -3,-9 -2,-3 -5,-4 -8,-4l-14 0zm0 -4l12 0c3,0 6,-1 8,-3 2,-2 3,-5 3,-9 0,-4 -1,-7 -3,-9 -2,-2 -5,-3 -9,-3l-11 0 0 24zm81 10c0,8 -2,14 -5,18 -4,5 -9,7 -15,7 -6,0 -11,-2 -15,-7 -4,-4 -5,-10 -5,-18l0 -14c0,-8 1,-14 5,-18 4,-5 8,-7 15,-7 6,0 11,2 15,7 3,4 5,10 5,18l0 14zm-5 -14c0,-7 -1,-12 -4,-15 -3,-4 -6,-5 -11,-5 -5,0 -9,1 -11,5 -3,3 -4,8 -5,15l0 14c0,6 2,12 5,15 2,3 6,5 11,5 5,0 9,-1 11,-5 3,-3 4,-9 4,-15l0 -14zm-581 102l0 26 -5 0 0 -63 18 0c5,0 10,2 13,5 3,4 5,8 5,14 0,6 -2,11 -5,14 -3,3 -7,4 -13,4l-13 0zm0 -4l13 0c4,0 7,-1 9,-4 3,-2 4,-5 4,-10 0,-4 -1,-8 -4,-10 -2,-3 -5,-4 -9,-4l-13 0 0 28zm71 0l-24 0 0 25 28 0 0 5 -33 0 0 -63 33 0 0 5 -28 0 0 23 24 0 0 5zm53 30l-4 0 0 -58 -29 0 0 58 -5 0 0 -63 38 0 0 63zm44 -18l-24 0 -5 18 -5 0 20 -63 4 0 20 63 -5 0 -5 -18zm-22 -4l20 0 -10 -34 -10 34zm71 -36l-17 0 0 58 -5 0 0 -58 -18 0 0 -5 40 0 0 5zm15 32l0 26 -5 0 0 -63 19 0c5,0 9,2 13,5 3,4 4,8 4,14 0,6 -1,11 -4,14 -3,3 -8,4 -14,4l-13 0zm0 -4l14 0c4,0 7,-1 9,-4 2,-2 3,-5 3,-10 0,-4 -1,-8 -3,-10 -2,-3 -5,-4 -9,-4l-14 0 0 28zm77 -33l5 0 0 63 -5 0 0 -53 -29 53 -5 0 0 -63 5 0 0 53 29 -53zm49 45l-24 0 -5 18 -5 0 20 -63 4 0 20 63 -5 0 -5 -18zm-22 -4l20 0 -10 -34 -10 34zm41 -41l5 0 0 58 29 0 0 -58 5 0 0 58 5 0 0 20 -5 0 0 -15 -39 0 0 -63zm89 0l5 0 0 63 -5 0 0 -53 -29 53 -5 0 0 -63 5 0 0 53 29 -53zm54 0l5 0 0 63 -5 0 0 -53 -29 53 -5 0 0 -63 5 0 0 53 29 -53zm73 0l5 0 0 63 -5 0 0 -53 -29 53 -5 0 0 -63 5 0 0 53 29 -53zm-570 135l-23 0 -5 17 -6 0 20 -62 5 0 20 62 -5 0 -6 -17zm-22 -5l21 0 -10 -33 -11 33zm73 -35l-26 0 0 22 12 0c6,0 10,2 13,5 3,3 5,7 5,13 0,5 -2,10 -5,13 -3,3 -7,4 -13,4l-17 0 0 -62 31 0 0 5zm-26 27l0 26 12 0c4,0 7,-1 10,-4 2,-2 3,-5 3,-9 0,-4 -1,-7 -3,-10 -3,-2 -6,-3 -9,-3l-13 0zm80 11c0,7 -2,12 -6,15 -3,4 -7,5 -13,5 -6,0 -11,-2 -15,-6 -3,-5 -5,-11 -5,-19l0 -14c0,-7 2,-14 6,-18 3,-4 8,-7 14,-7 6,0 10,2 14,5 3,4 5,9 5,16l-5 0c0,-6 -2,-10 -4,-12 -2,-3 -5,-4 -10,-4 -5,0 -8,2 -11,5 -3,4 -4,9 -4,16l0 13c0,7 1,12 4,15 2,4 6,6 11,6 5,0 8,-1 10,-4 2,-2 4,-6 4,-12l5 0zm51 -5c0,8 -2,14 -5,19 -4,4 -9,6 -15,6 -7,0 -11,-2 -15,-6 -4,-5 -5,-11 -5,-19l0 -13c0,-8 1,-15 5,-19 3,-4 8,-7 15,-7 6,0 11,3 15,7 3,4 5,11 5,19l0 13zm-5 -13c0,-7 -1,-12 -4,-16 -3,-3 -6,-5 -11,-5 -5,0 -9,2 -11,5 -3,3 -5,8 -5,15l0 14c0,7 2,12 4,16 3,3 7,5 12,5 5,0 8,-2 11,-5 3,-4 4,-9 4,-16l0 -13zm23 12l0 25 -5 0 0 -62 18 0c5,0 10,2 13,5 3,3 5,8 5,14 0,6 -2,10 -5,13 -3,4 -7,5 -13,5l-13 0zm0 -4l13 0c4,0 7,-2 9,-4 3,-2 4,-6 4,-10 0,-4 -1,-8 -4,-10 -2,-3 -5,-4 -9,-4l-13 0 0 28zm73 -28l-26 0 0 22 12 0c6,0 10,2 13,5 3,3 5,7 5,13 0,5 -2,10 -5,13 -3,3 -7,4 -12,4l-18 0 0 -62 31 0 0 5zm-26 27l0 26 13 0c4,0 7,-1 9,-4 2,-2 3,-5 3,-9 0,-4 -1,-7 -3,-10 -2,-2 -5,-3 -9,-3l-13 0zm43 -32l5 0 0 58 29 0 0 -58 5 0 0 58 5 0 -1 19 -4 0 0 -15 -39 0 0 -62zm88 0l5 0 0 62 -5 0 0 -53 -29 53 -4 0 0 -62 4 0 0 53 29 -53zm54 0l5 0 0 62 -5 0 0 -53 -29 53 -5 0 0 -62 5 0 0 53 29 -53z"/>
 </g>
</svg>
